REM DIRINDEX 1\2\6,1\2\7,1\2\8,1\2\9,1\3\10,1\3\11,1\4\12,1\4\13,1\4\14,1\5\15,1\5\16,1\5\17
REM DIRNAME cjc029,folder01,folder02,folder03,folder04,folder05,folder06,folder07,folder08,folder09,folder10,folder11,folder12,folder13,folder14,folder15,folder16
TITLE ""
FILE "1400_2_sec13_1266_1283.mp3" MP3
  TRACK 01 AUDIO
    TITLE "0:"
    INDEX 01 00:00:00
  TRACK 02 AUDIO
    TITLE "13:cjc029_4150"
    INDEX 01 00:00:23
  TRACK 03 AUDIO
    TITLE "0:"
    INDEX 01 00:01:60
  TRACK 04 AUDIO
    TITLE "14:cjc029_4151"
    INDEX 01 00:01:68
  TRACK 05 AUDIO
    TITLE "0:"
    INDEX 01 00:06:41
  TRACK 06 AUDIO
    TITLE "13:cjc029_4152"
    INDEX 01 00:07:23
  TRACK 07 AUDIO
    TITLE "0:"
    INDEX 01 00:08:54
  TRACK 08 AUDIO
    TITLE "14:cjc029_4153"
    INDEX 01 00:08:60
  TRACK 09 AUDIO
    TITLE "0:"
    INDEX 01 00:10:63
  TRACK 10 AUDIO
    TITLE "13:cjc029_4154"
    INDEX 01 00:11:46
  TRACK 11 AUDIO
    TITLE "0:"
    INDEX 01 00:12:69
  TRACK 12 AUDIO
    TITLE "14:cjc029_4155"
    INDEX 01 00:12:73
  TRACK 13 AUDIO
    TITLE "0:"
    INDEX 01 00:14:15
  TRACK 14 AUDIO
    TITLE "13:cjc029_4156"
    INDEX 01 00:14:72
  TRACK 15 AUDIO
    TITLE "0:"
    INDEX 01 00:16:02
  TRACK 16 AUDIO
    TITLE "14:cjc029_4157"
    INDEX 01 00:16:12
  TRACK 17 AUDIO
    TITLE "0:"
    INDEX 01 00:17:08
  TRACK 18 AUDIO
    TITLE "13:cjc029_4158"
    INDEX 01 00:17:65
  TRACK 19 AUDIO
    TITLE "0:"
    INDEX 01 00:18:62
  TRACK 20 AUDIO
    TITLE "14:cjc029_4159"
    INDEX 01 00:18:66
  TRACK 21 AUDIO
    TITLE "0:"
    INDEX 01 00:22:52
  TRACK 22 AUDIO
    TITLE "13:cjc029_4160"
    INDEX 01 00:23:34
  TRACK 23 AUDIO
    TITLE "0:"
    INDEX 01 00:24:45
  TRACK 24 AUDIO
    TITLE "14:cjc029_4161"
    INDEX 01 00:24:51
  TRACK 25 AUDIO
    TITLE "0:"
    INDEX 01 00:27:14
  TRACK 26 AUDIO
    TITLE "13:cjc029_4162"
    INDEX 01 00:27:69
  TRACK 27 AUDIO
    TITLE "0:"
    INDEX 01 00:29:07
  TRACK 28 AUDIO
    TITLE "14:cjc029_4163"
    INDEX 01 00:29:11
  TRACK 29 AUDIO
    TITLE "0:"
    INDEX 01 00:30:38
  TRACK 30 AUDIO
    TITLE "13:cjc029_4164"
    INDEX 01 00:31:20
  TRACK 31 AUDIO
    TITLE "0:"
    INDEX 01 00:32:43
  TRACK 32 AUDIO
    TITLE "14:cjc029_4165"
    INDEX 01 00:32:47
  TRACK 33 AUDIO
    TITLE "0:"
    INDEX 01 00:33:64
  TRACK 34 AUDIO
    TITLE "13:cjc029_4166"
    INDEX 01 00:34:49
  TRACK 35 AUDIO
    TITLE "0:"
    INDEX 01 00:35:63
  TRACK 36 AUDIO
    TITLE "14:cjc029_4167"
    INDEX 01 00:35:68
  TRACK 37 AUDIO
    TITLE "0:"
    INDEX 01 00:39:25
  TRACK 38 AUDIO
    TITLE "13:cjc029_4168"
    INDEX 01 00:40:09
  TRACK 39 AUDIO
    TITLE "0:"
    INDEX 01 00:41:28
  TRACK 40 AUDIO
    TITLE "14:cjc029_4169"
    INDEX 01 00:41:34
  TRACK 41 AUDIO
    TITLE "0:"
    INDEX 01 00:42:43
  TRACK 42 AUDIO
    TITLE "13:cjc029_4170"
    INDEX 01 00:43:25
  TRACK 43 AUDIO
    TITLE "0:"
    INDEX 01 00:44:40
  TRACK 44 AUDIO
    TITLE "14:cjc029_4171"
    INDEX 01 00:44:42
  TRACK 45 AUDIO
    TITLE "0:"
    INDEX 01 00:46:70
  TRACK 46 AUDIO
    TITLE "12:cjc029_4172"
    INDEX 01 00:48:42
  TRACK 47 AUDIO
    TITLE "0:"
    INDEX 01 00:50:09
  TRACK 48 AUDIO
    TITLE "13:cjc029_4173"
    INDEX 01 00:51:13
  TRACK 49 AUDIO
    TITLE "0:"
    INDEX 01 00:52:41
  TRACK 50 AUDIO
    TITLE "14:cjc029_4174"
    INDEX 01 00:52:43
  TRACK 51 AUDIO
    TITLE "0:"
    INDEX 01 00:54:01
  TRACK 52 AUDIO
    TITLE "13:cjc029_4175"
    INDEX 01 00:54:56
  TRACK 53 AUDIO
    TITLE "0:"
    INDEX 01 00:55:61
  TRACK 54 AUDIO
    TITLE "14:cjc029_4176"
    INDEX 01 00:55:65
  TRACK 55 AUDIO
    TITLE "0:"
    INDEX 01 00:58:38
  TRACK 56 AUDIO
    TITLE "13:cjc029_4177"
    INDEX 01 00:59:20
  TRACK 57 AUDIO
    TITLE "0:"
    INDEX 01 01:00:27
  TRACK 58 AUDIO
    TITLE "14:cjc029_4178"
    INDEX 01 01:00:31
  TRACK 59 AUDIO
    TITLE "0:"
    INDEX 01 01:03:16
  TRACK 60 AUDIO
    TITLE "13:cjc029_4179"
    INDEX 01 01:03:73
  TRACK 61 AUDIO
    TITLE "0:"
    INDEX 01 01:05:01
  TRACK 62 AUDIO
    TITLE "14:cjc029_4180"
    INDEX 01 01:05:05
  TRACK 63 AUDIO
    TITLE "0:"
    INDEX 01 01:08:60
  TRACK 64 AUDIO
    TITLE "13:cjc029_4181"
    INDEX 01 01:09:40
  TRACK 65 AUDIO
    TITLE "0:"
    INDEX 01 01:10:51
  TRACK 66 AUDIO
    TITLE "14:cjc029_4182"
    INDEX 01 01:10:57
  TRACK 67 AUDIO
    TITLE "0:"
    INDEX 01 01:13:02
  TRACK 68 AUDIO
    TITLE "13:cjc029_4183"
    INDEX 01 01:13:59
  TRACK 69 AUDIO
    TITLE "0:"
    INDEX 01 01:15:03
  TRACK 70 AUDIO
    TITLE "14:cjc029_4184"
    INDEX 01 01:15:09
  TRACK 71 AUDIO
    TITLE "0:"
    INDEX 01 01:17:35
  TRACK 72 AUDIO
    TITLE "13:cjc029_4185"
    INDEX 01 01:18:15
  TRACK 73 AUDIO
    TITLE "0:"
    INDEX 01 01:19:11
  TRACK 74 AUDIO
    TITLE "14:cjc029_4186"
    INDEX 01 01:19:13
  TRACK 75 AUDIO
    TITLE "0:"
    INDEX 01 01:21:65
